# xmcd CD database file
#
# Track frame offsets:
#	150
#	22627
#	49040
#	65245
#	99047
#
# Disc length: 4440 seconds
#
# Revision: 0
# Processed by: cddbd v1.5PL3 Copyright (c) Steve Scherf et al.
# Submitted via: CDex 1.50beta8
#
DISCID=31115605
DTITLE=PENICILLIN - 白髏の舞
DYEAR=2003
DGENRE=Japanese Rock
TTITLE0=白髏の舞
TTITLE1=赤裸の境界〜Remix Version〜
TTITLE2=墓標〜Remix Version〜
TTITLE3=白髏の舞〜KARAOKE〜
TTITLE4=コピーコントロールCD
EXTD=YEAR: 2003
EXTT0=
EXTT1=
EXTT2=
EXTT3=
EXTT4=
PLAYORDER=
